PathFileType	4	(X/Y/Z)	Captury_Subj1_squat02.trc
DataRate	CameraRate	NumFrames	NumMarkers	Units	OrigDataRate	OrigDataStartFrame	OrigNumFrames
60.0	60.0	7	47	mm	59.99879837036133	178	284
Frame#	Time		LeftUpLeg_		RightUpLeg_		LeftLeg_		RightLeg_		LeftFoot_		RightFoot_		LeftToeBase_		RightToeBase_		Knee_Lateral_r		Knee_Lateral_l		Ankle_Lateral_r		Ankle_Lateral_l		LeftArm_		LeftForeArm_		LeftHand_		LeftHandEE		RightArm_		RightForeArm_		RightHand_		RightHandEE		Spine_		Spine1_		Spine2_		Spine3_		Spine4_		Spine5_		Spine_x		Spine_y		Spine_z		RASI		LASI		RIPS		LIPS		RTHI		LTHI		RTIB		LTIB		RTOE		LTOE		RHEE		LHEE		RHipAngles		LHipAngles		RKneeAngles		LKneeAngles		RAnkleAngles		LAnkleAngles
			X1	Y1	Z1	X2	Y2	Z2	X3	Y3	Z3	X4	Y4	Z4	X5	Y5	Z5	X6	Y6	Z6	X7	Y7	Z7	X8	Y8	Z8	X9	Y9	Z9	X10	Y10	Z10	X11	Y11	Z11	X12	Y12	Z12	X13	Y13	Z13	X14	Y14	Z14	X15	Y15	Z15	X16	Y16	Z16	X17	Y17	Z17	X18	Y18	Z18	X19	Y19	Z19	X20	Y20	Z20	X21	Y21	Z21	X22	Y22	Z22	X23	Y23	Z23	X24	Y24	Z24	X25	Y25	Z25	X26	Y26	Z26	X27	Y27	Z27	X28	Y28	Z28	X29	Y29	Z29	X30	Y30	Z30	X31	Y31	Z31	X32	Y32	Z32	X33	Y33	Z33	X34	Y34	Z34	X35	Y35	Z35	X36	Y36	Z36	X37	Y37	Z37	X38	Y38	Z38	X39	Y39	Z39	X40	Y40	Z40	X41	Y41	Z41	X42	Y42	Z42	X43	Y43	Z43	X44	Y44	Z44	X45	Y45	Z45	X46	Y46	Z46	X47	Y47	Z47

178	2.95000	-157.31113	429.54752	314.13043	7.75456	442.78961	303.27161	-285.64948	423.04544	-63.20114	91.51896	419.28131	-85.73096	-224.58620	80.95163	57.63844	53.15302	81.18152	54.18227	-245.95663	30.21105	-56.67244	77.88055	28.65596	-58.63569	136.40594	414.66013	-78.17535	-329.24176	416.92023	-50.73207	95.16597	77.72701	79.70196	-263.55936	75.97958	87.38148	-249.22871	679.33484	-101.98634	-253.61160	676.71460	-378.29172	-252.03815	695.62256	-610.98193	-258.87064	705.31158	-695.35516	17.38280	691.44818	-117.23387	7.67605	684.17004	-393.32001	-5.81642	709.10596	-625.05444	8.39140	718.01471	-708.58990	-84.24518	497.39844	239.46228	-91.84152	530.84711	158.58627	-97.23339	574.38025	115.89107	-103.32184	644.99359	76.27798	-112.33457	715.94043	-23.10944	0.00000	0.00000	0.00000	-37.94604	501.11270	236.41652	-88.74448	520.59851	199.35995	-85.92708	537.58105	262.89752	61.38837	398.18283	198.14178	-216.40646	375.89728	216.41638	-45.51543	510.55939	275.14819	-119.59406	504.61658	280.02142	110.35847	422.34207	132.19272	-278.85458	414.92407	155.30038	112.14613	258.96368	-30.09072	-285.47479	207.97629	0.58904	90.86553	17.19945	-128.03911	-258.00461	7.31514	-123.36067	51.05538	20.78030	104.61625	-220.62756	19.48716	106.65621	-147.38896	12.75863	10.93263	-150.20784	12.09922	3.19232	-104.22330	-0.04688	-0.10430	-104.88838	0.06783	-0.47647	-14.34803	0.94181	11.84609	-12.45009	-5.64904	11.65758
179	2.96667	-157.52982	431.33853	314.10223	7.51670	444.66302	303.05417	-285.50650	423.22980	-63.32092	91.65704	419.62695	-85.77185	-224.51198	81.10104	57.45428	53.18833	81.43457	53.88898	-245.83179	30.20228	-56.79565	77.99590	28.66070	-58.79542	136.53851	415.05222	-78.15544	-329.10449	417.11060	-50.86879	95.16505	78.03622	79.47576	-263.50403	76.15265	87.17648	-249.54341	681.03900	-102.54748	-253.43625	679.07617	-378.86563	-251.58946	698.53943	-611.50800	-257.79889	708.02252	-695.95276	17.02643	695.06586	-116.79421	7.96163	686.98334	-392.87976	-5.61204	711.90723	-624.61072	8.15143	720.31604	-708.27228	-84.57594	498.87994	239.04494	-92.28269	532.25861	158.10831	-97.77616	575.86414	115.44357	-104.05451	646.63538	76.06624	-113.19453	718.11530	-22.97556	0.00000	0.00000	0.00000	-38.28218	502.61731	235.94608	-89.12444	521.87787	198.83188	-86.27364	539.17651	262.28262	61.10890	399.58163	198.10574	-216.65364	377.15735	216.69893	-45.83046	512.24902	274.63629	-119.90047	506.26923	279.59448	110.28951	423.56732	132.15549	-278.90930	415.97238	155.21695	112.25370	259.28693	-30.18497	-285.36923	208.14328	0.41057	91.00043	17.20128	-128.19469	-257.84448	7.29228	-123.48539	51.12701	21.15234	104.46661	-220.63734	19.70844	106.56872	-147.45595	12.86047	10.96020	-150.25174	11.99803	3.20505	-103.96220	-0.09134	-0.10038	-104.63979	0.06004	-0.48586	-14.17963	0.88379	11.90406	-12.35347	-5.64955	11.72507
180	2.98333	-157.77946	433.75983	314.03238	7.27252	446.70978	302.62668	-285.35855	423.43839	-63.47144	92.01723	419.77609	-85.94119	-224.51495	81.25571	57.22709	52.99719	81.60373	53.61523	-245.84276	30.14579	-56.92707	77.85981	28.48387	-58.89432	136.87495	415.13132	-78.22790	-328.97192	417.40939	-51.02927	94.92690	78.22427	79.28149	-263.51312	76.35825	86.94968	-249.93913	683.73700	-102.94526	-253.01498	682.47253	-379.27780	-250.61603	702.55615	-611.86243	-257.09021	711.16223	-696.38123	16.59948	699.20947	-116.49176	8.24896	690.34271	-392.57584	-5.24627	715.01855	-624.33801	7.66465	724.01019	-708.07489	-84.83005	500.84418	238.56195	-92.66461	534.24463	157.56602	-98.22688	577.98004	114.93516	-104.62797	648.96130	75.80955	-113.95741	721.05121	-22.86499	0.00000	0.00000	0.00000	-38.53475	504.47650	235.36278	-89.40692	523.68420	198.26222	-86.40504	541.23999	261.63531	60.58192	401.08716	197.76817	-217.18983	379.29327	216.96320	-45.99268	514.28351	274.02649	-120.06516	508.47177	279.14514	110.28735	424.62848	131.99843	-278.99588	417.48651	155.11290	112.37337	259.41473	-30.32722	-285.31699	208.33829	0.21444	90.90347	16.89898	-128.26541	-257.85419	7.17447	-123.59595	50.86375	21.47207	104.36882	-220.70210	19.95819	106.46500	-147.46735	13.06465	10.98929	-150.11852	11.84070	3.28885	-103.69565	-0.04844	-0.09880	-104.29041	-0.03319	-0.49373	-14.00526	0.83602	11.95098	-12.22960	-5.64994	11.77675
181	3.00000	-157.98798	436.60977	314.06531	7.02688	449.76794	302.36414	-285.22369	423.72754	-63.47568	92.06586	420.02075	-85.93417	-224.33475	81.45013	56.93104	53.06167	81.73035	53.34029	-245.59212	30.11669	-57.13593	77.99538	28.39626	-59.05216	136.91656	415.42181	-78.15292	-328.83081	417.65219	-51.03403	94.95634	78.41574	79.07210	-263.34338	76.57060	86.64285	-250.17125	687.48315	-103.37380	-252.54510	686.81665	-379.71542	-249.57289	707.48090	-612.24255	-256.26791	715.34546	-696.81635	16.32143	703.70514	-116.40057	8.48036	694.35437	-392.48358	-5.01119	719.09589	-624.23889	7.14909	728.13208	-708.08325	-85.24847	503.24222	237.99434	-93.21716	536.51544	156.88821	-98.83034	580.35529	114.27601	-105.23711	651.57697	75.45891	-114.44114	724.44501	-22.73724	0.00000	0.00000	0.00000	-38.96360	506.93295	234.71230	-89.91392	525.76318	197.52554	-86.86927	543.81152	260.75809	60.29533	403.43552	197.79645	-217.41393	381.29114	217.48875	-46.39379	517.02380	273.30823	-120.44958	511.11862	278.55951	110.16862	426.43710	131.97899	-279.02698	419.07391	155.14491	112.44722	259.63892	-30.38852	-285.15210	208.57187	0.02203	91.06461	16.78670	-128.41434	-257.56277	7.08599	-123.79166	50.93524	21.69972	104.21364	-220.53926	20.24836	106.28922	-147.51656	13.17473	11.10699	-150.20302	11.71727	3.34731	-103.24096	-0.07141	-0.09986	-103.87775	0.00457	-0.49787	-13.84664	0.78141	11.96524	-12.06872	-5.64997	11.82095
182	3.01667	-157.81177	440.25830	314.03589	7.17242	453.18625	301.66516	-285.02777	424.14951	-63.38779	92.26019	420.13138	-86.35483	-224.16801	81.73300	56.63747	53.17836	81.93951	53.13690	-245.54486	30.12552	-57.28342	78.01622	28.25137	-59.10809	137.10297	415.53702	-78.52528	-328.62891	418.13208	-50.89712	95.05585	78.69530	78.90565	-263.14548	76.91218	86.39977	-250.64378	692.78693	-103.25967	-252.20035	692.25470	-379.60733	-248.58044	713.08234	-612.11066	-255.68851	720.96790	-696.64880	15.90246	708.09918	-116.58523	8.05034	699.34998	-392.68759	-4.72514	723.99805	-624.49341	6.82667	733.07104	-708.41980	-85.28175	506.31015	237.26187	-93.49000	539.52783	156.09171	-99.13789	583.50446	113.53728	-105.43201	654.99121	75.06962	-114.61166	728.66821	-22.59998	0.00000	0.00000	0.00000	-39.00547	509.93631	233.79201	-90.06986	528.56226	196.65892	-86.78603	547.03333	259.75729	60.03024	406.10172	197.22507	-217.62744	384.34479	218.04425	-46.29042	520.29370	272.34500	-120.33247	514.49188	277.89676	110.32183	428.31683	131.50244	-278.83011	421.29602	155.26364	112.61403	259.79376	-30.67167	-284.99225	208.93956	-0.07422	91.03051	16.53020	-128.46181	-257.58347	7.01496	-123.89924	51.04631	22.06422	104.19270	-220.33339	20.65088	106.14060	-147.45760	13.38456	11.15008	-150.08365	11.52020	3.44581	-102.80252	-0.06054	-0.10325	-103.34624	-0.05100	-0.49935	-13.70298	0.71229	11.95222	-11.87582	-5.64971	11.84685
183	3.03333	-157.76511	443.95016	313.42325	7.22798	457.44336	301.79721	-285.15009	424.56616	-63.78946	92.09269	420.50159	-85.92090	-223.95471	82.24115	56.32659	53.09844	82.03952	52.93877	-245.33713	30.16645	-57.38047	77.82133	28.30176	-59.30785	136.93422	415.93512	-78.06793	-328.72134	418.48276	-51.22672	94.96187	78.81885	78.73329	-262.90121	77.47735	86.13855	-250.76216	698.18542	-103.21114	-252.17982	698.36499	-379.56003	-248.38495	719.79779	-612.00562	-254.96901	727.56226	-696.59741	15.79573	713.77991	-116.73409	7.85292	705.24261	-392.84052	-4.68447	730.18823	-624.62756	6.33466	738.25647	-708.72803	-85.10762	509.87781	236.66292	-93.11951	543.13873	155.34448	-98.80630	587.30750	112.79663	-105.27196	659.09625	74.64683	-114.64485	733.62347	-22.53034	0.00000	0.00000	0.00000	-38.82885	513.66248	233.40193	-89.77940	531.89972	195.92114	-86.87746	550.71155	258.93750	60.77937	410.01770	197.86603	-216.89326	387.30960	217.43192	-46.34344	524.19263	271.86395	-120.38947	518.13715	277.08151	110.26825	430.79807	131.83731	-278.80951	423.36401	154.87326	112.49655	260.07748	-30.50562	-284.91904	209.38742	-0.37009	90.75632	16.71162	-128.69841	-257.39038	6.84723	-123.92091	51.00184	22.18494	104.02036	-219.97672	21.35354	106.05757	-147.17157	13.02846	11.41905	-150.00259	11.84831	3.43643	-102.12955	-0.08077	-0.10276	-102.91324	0.01391	-0.50126	-13.56287	0.62653	11.93545	-11.67579	-5.64977	11.83373
184	3.05000	-157.28339	449.17249	313.24210	7.71825	462.56735	301.62347	-285.04376	425.09906	-63.57324	91.84690	420.72775	-85.75726	-223.89026	82.63727	56.17310	53.16473	82.14349	52.89117	-245.52159	30.29320	-57.36304	77.64847	28.21229	-59.31506	136.69620	416.19827	-77.92724	-328.58911	419.07858	-50.89094	95.04072	78.99092	78.67371	-262.76633	77.95601	86.08987	-250.96339	704.07648	-103.15157	-252.37036	705.36639	-379.49756	-248.64301	727.78137	-611.85156	-255.29332	734.58466	-696.52087	15.52332	720.43561	-117.07444	7.59834	711.96942	-393.18353	-4.73126	737.02258	-624.97009	5.79251	745.12903	-709.13025	-84.56127	514.10571	235.69936	-92.59186	547.05988	154.20743	-98.36346	591.31384	111.69109	-105.00557	663.38776	74.01644	-114.75947	738.95660	-22.37556	0.00000	0.00000	0.00000	-38.28010	517.86279	232.44046	-89.19449	535.58624	194.66519	-86.36947	555.22937	257.43088	61.40183	413.79199	198.38751	-216.28519	391.24933	217.94086	-45.84132	528.89728	270.75165	-119.89120	522.88593	275.96588	110.42187	433.68732	131.82494	-278.46088	426.48383	155.08116	112.39694	260.28564	-30.44852	-284.87296	209.88374	-0.27826	90.42386	16.55852	-128.72452	-257.72382	6.88451	-123.84486	51.20533	22.38016	104.08488	-219.75929	21.86494	106.03239	-147.20587	12.85751	11.49569	-150.09518	11.96627	3.53789	-101.36945	-0.09022	-0.08890	-102.17782	-0.01279	-0.50803	-13.40847	0.52216	11.93857	-11.49675	-5.65106	11.78732
